<svg width="12" height="12" viewBox="0 0 12 12" fill="none" xmlns="http://www.w3.org/2000/svg">
<mask id="mask0_4_5145" style="mask-type:luminance" maskUnits="userSpaceOnUse" x="1" y="1" width="10" height="11">
<path d="M1 1.5H11V11.5H1V1.5Z" fill="white"/>
</mask>
<g mask="url(#mask0_4_5145)">
<path d="M6.44801 2.02895C6.40664 1.94548 6.34278 1.87523 6.26363 1.82612C6.18447 1.777 6.09317 1.75098 6.00001 1.75098C5.90685 1.75098 5.81555 1.777 5.73639 1.82612C5.65724 1.87523 5.59338 1.94548 5.55201 2.02895L4.28701 4.58995L1.45901 4.99995C1.36645 5.01322 1.27947 5.05218 1.20795 5.11239C1.13642 5.17261 1.08321 5.25168 1.05436 5.34062C1.02551 5.42956 1.02218 5.52481 1.04475 5.61555C1.06731 5.70629 1.11486 5.78888 1.18201 5.85395L3.22801 7.84795L2.74501 10.6639C2.72896 10.756 2.73905 10.8508 2.77414 10.9374C2.80923 11.0241 2.8679 11.0992 2.9435 11.1541C3.0191 11.2091 3.10861 11.2418 3.20185 11.2485C3.29509 11.2552 3.38834 11.2356 3.47101 11.1919L6.00001 9.86295L8.53001 11.1929C8.61257 11.2362 8.70558 11.2556 8.79855 11.2488C8.89151 11.242 8.98073 11.2093 9.05613 11.1545C9.13153 11.0997 9.1901 11.0249 9.22525 10.9386C9.26039 10.8523 9.2707 10.7578 9.25501 10.6659L8.77201 7.84895L10.818 5.85495C10.8849 5.78984 10.9322 5.70732 10.9545 5.61673C10.9769 5.52614 10.9735 5.43109 10.9447 5.34233C10.9159 5.25357 10.8628 5.17465 10.7915 5.1145C10.7201 5.05435 10.6334 5.01536 10.541 5.00195L7.71301 4.58995L6.44801 2.02895Z" fill="#FFC400"/>
</g>
</svg>
